<svg width="21" height="26" viewBox="0 0 21 26" fill="none" xmlns="http://www.w3.org/2000/svg">
<path d="M12.1002 2.79995C11.8002 2.69995 11.4002 2.69995 11.0002 2.69995C6.8002 2.69995 3.4002 5.79995 2.8002 9.79995C2.7002 10.2 2.7002 10.6 2.7002 11C2.7002 15 6.3002 18.9999 8.8002 21.2999C10.1002 22.4999 11.0002 23.2 11.0002 23.2C11.0002 23.2 19.3002 17.8 19.3002 11.1C19.3002 10.6 19.3002 10.1 19.2002 9.59995C18.6002 5.99995 15.7002 3.29995 12.1002 2.79995Z" stroke="#78B948" stroke-width="2" stroke-miterlimit="10" stroke-linecap="round" stroke-linejoin="round"/>
<path d="M11.4 15.1C11.3 15.1 11.3 15.1 11.2 15.1C8.9 15.1 7 13.3 7 10.9C7 10.2 7.2 9.49998 7.5 8.89998C8.2 7.59998 9.6 6.59998 11.3 6.59998C11.7 6.59998 12.1 6.69998 12.5 6.79998C13.6 7.09998 14.5 7.89998 15.1 8.79998C15.4 9.39998 15.6 10.1 15.6 10.9C15.5 13.2 13.7 15 11.4 15.1Z" stroke="#78B948" stroke-width="2" stroke-miterlimit="10" stroke-linecap="round" stroke-linejoin="round"/>
</svg>
