<svg width="27" height="28" viewBox="0 0 27 28" fill="none" xmlns="http://www.w3.org/2000/svg">
<path d="M4.37341 6.8067C3.5822 7.3267 2.87891 8.45336 2.87891 9.4067V18.5934C2.87891 19.5467 3.5822 20.76 4.37341 21.1934L12.4613 25.7867C13.3404 26.22 14.6591 26.22 15.5382 25.7867L23.6262 21.1934C24.5053 20.76 25.1207 19.5467 25.1207 18.5934V9.4067C25.1207 8.45336 24.4174 7.24003 23.6262 6.8067L15.5382 2.21336C14.6591 1.69336 13.3404 1.69336 12.4613 2.21336L4.37341 6.8067Z" stroke="#78B948" stroke-width="2" stroke-miterlimit="10" stroke-linecap="round" stroke-linejoin="round"/>
<path d="M13.9561 13.9133V21.8" stroke="#78B948" stroke-width="2" stroke-miterlimit="10" stroke-linecap="round" stroke-linejoin="round"/>
<path d="M3.40674 8.02002L13.9562 14" stroke="#78B948" stroke-width="2" stroke-miterlimit="10" stroke-linecap="round" stroke-linejoin="round"/>
<path d="M20.989 10.0133L13.9561 14" stroke="#78B948" stroke-width="2" stroke-miterlimit="10" stroke-linecap="round" stroke-linejoin="round"/>
<path d="M19.6702 4.55334L8.59326 10.88" stroke="#78B948" stroke-width="2" stroke-miterlimit="10" stroke-linecap="round" stroke-linejoin="round"/>
</svg>
