<svg width="54" height="52" viewBox="0 0 54 52" fill="none" xmlns="http://www.w3.org/2000/svg">
<path d="M46.2169 23.374V36.8823C46.2169 38.479 44.8658 39.8301 43.2691 39.8301H19.0726L10.7206 48.5506V39.8301H4.94779C3.35107 39.8301 2 38.479 2 36.8823V11.4576C2 9.86084 3.35107 8.50977 4.94779 8.50977H30.8592" stroke="white" stroke-width="2.4" stroke-miterlimit="10"/>
<path d="M7.11338 16.8878H26.2671" stroke="white" stroke-width="2.4"/>
<path d="M7.11338 32.0647H35.5196" stroke="white" stroke-width="2.4"/>
<path d="M7.11338 24.4636H13.6877" stroke="white" stroke-width="2.4"/>
<path d="M16.6902 24.4636H30.5689" stroke="white" stroke-width="2.4"/>
<path d="M43.5147 19.6868C48.3988 19.6868 52.3581 15.7274 52.3581 10.8434C52.3581 5.95932 48.3988 2 43.5147 2C38.6306 2 34.6713 5.95932 34.6713 10.8434C34.6713 15.7274 38.6306 19.6868 43.5147 19.6868Z" stroke="white" stroke-width="2.4" stroke-miterlimit="10"/>
<path d="M44.8658 5.07056H42.4093V11.9487H44.8658V5.07056Z" fill="white"/>
<path d="M44.8658 13.7914H42.4093V16.1251H44.8658V13.7914Z" fill="white"/>
</svg>
