<svg width="51" height="47" viewBox="0 0 51 47" fill="none" xmlns="http://www.w3.org/2000/svg">
<g clip-path="url(#clip0)">
<path d="M0.8703 23.5859C0.928321 23.4092 0.986341 23.2914 1.04436 23.1147C1.50853 22.1134 2.26279 21.7601 3.30716 21.7601C7.89078 21.7601 12.5324 21.7601 17.116 21.7601C17.3481 21.7601 17.6382 21.819 17.8703 21.819C17.9283 21.819 17.9863 21.819 18.0444 21.8779C18.4505 22.2312 18.7986 21.9368 19.0307 21.6423C19.843 20.5821 20.7133 19.5808 21.4095 18.4028C22.744 16.2236 24.0205 13.9265 25.2969 11.6884C25.587 11.2172 25.7031 10.6871 25.645 10.157C25.587 8.44892 25.587 6.74085 25.529 5.09168C25.471 3.9137 26.0512 3.03022 27.0956 2.50013C28.6621 1.67555 30.2287 1.67555 31.8532 2.38233C32.7235 2.73573 33.2457 3.38362 33.5938 4.2671C34.1741 5.79847 34.7543 7.32984 35.2764 8.86121C35.8566 10.5693 35.7986 12.3362 35.4505 14.1032C35.2184 15.399 34.9863 16.7537 34.8123 18.0494C34.7543 18.5206 34.7543 18.5206 35.2184 18.5206C38.7577 18.5206 42.2969 18.5206 45.8362 18.5206C46.4744 18.5206 47.1706 18.6384 47.8089 18.8151C49.0273 19.2274 49.7235 20.2287 50.0136 21.4656C50.0717 21.6423 50.1297 21.7601 50.1297 21.9368C50.1297 22.4079 50.1297 22.8202 50.1297 23.2914C50.1297 23.3503 50.0717 23.3503 50.0717 23.4092C49.8976 24.3516 49.5495 25.2351 48.8532 25.9419C48.7952 26.0008 48.7952 26.2364 48.8532 26.3542C48.9693 26.9432 49.2014 27.5321 49.2014 28.1211C49.2594 29.358 48.7952 30.4771 48.0409 31.4195C47.8669 31.6551 47.8669 31.7729 47.9829 32.0085C48.099 32.4796 48.273 32.9508 48.273 33.422C48.331 34.7767 47.8669 35.9547 47.1126 37.0738C47.0546 37.1916 46.9386 37.3683 46.9966 37.486C47.2867 38.2517 47.3447 39.0763 47.2867 39.9009C47.1126 42.0213 45.8362 43.6115 43.8635 44.3183C42.8771 44.6717 41.8328 44.7306 40.7884 44.7306C34.7543 44.7306 28.7201 44.7306 22.628 44.7306C21.2355 44.7306 20.0171 44.3772 18.9147 43.6115C18.6826 43.4348 18.3925 43.4348 18.0444 43.317C18.0444 43.6115 18.0444 43.7882 18.0444 44.0238C17.9863 45.3196 17.2321 46.1442 15.9556 46.2031C11.6621 46.2031 7.42661 46.2031 3.1331 46.2031C2.55289 46.2031 1.97269 46.0264 1.56655 45.5552C1.33446 45.2607 1.1604 44.9073 0.986341 44.5539C0.8703 37.486 0.8703 30.536 0.8703 23.5859Z" stroke="white" stroke-width="2.4" stroke-miterlimit="10" stroke-linecap="round" stroke-linejoin="round"/>
<path d="M17.9283 21.8189V43.1992" stroke="white" stroke-width="2.4" stroke-miterlimit="10" stroke-linecap="round" stroke-linejoin="round"/>
<path d="M11.7781 40.9611C13.188 40.9611 14.331 39.8008 14.331 38.3695C14.331 36.9382 13.188 35.778 11.7781 35.778C10.3682 35.778 9.22522 36.9382 9.22522 38.3695C9.22522 39.8008 10.3682 40.9611 11.7781 40.9611Z" stroke="white" stroke-width="2.4" stroke-miterlimit="10" stroke-linecap="round" stroke-linejoin="round"/>
</g>
<defs>
<clipPath id="clip0">
<rect width="51" height="46" fill="white" transform="translate(0 0.96875)"/>
</clipPath>
</defs>
</svg>
