<svg width="62" height="46" viewBox="0 0 62 46" fill="none" xmlns="http://www.w3.org/2000/svg">
<g clip-path="url(#clip0)">
<path d="M50.55 25L43.25 22.4C42.75 22.2 41.95 22.2 41.35 22.3L39.65 22.7C39.15 22.8 38.35 23.2 37.95 23.6L35.55 25.8C35.15 26.2 34.35 26.5 33.85 26.6L29.85 26.9C29.35 26.9 28.45 27 27.85 27.1L25.35 27.2C24.85 27.2 23.95 27.5 23.45 27.8L22.75 28.2C22.25 28.5 21.75 29.1 21.55 29.6L20.85 31.7C20.65 32.2 20.15 32.6 19.55 32.4L7.05 29.8C6.55 29.7 5.65 29.7 5.15 29.8L3.75 30.2C3.25 30.3 2.55 30.8 2.35 31.3L1.55 32.7C1.25 33.2 1.25 34 1.55 34.5L1.65 34.6C1.95 35.1 2.55 35.6 3.05 35.8L23.15 43.3C23.65 43.5 24.55 43.7 25.05 43.7L26.85 43.8C27.35 43.8 28.25 43.8 28.85 43.6L50.55 37.6" stroke="white" stroke-width="2.4" stroke-miterlimit="10"/>
<path d="M40.05 31.9L28.95 34.8C28.45 34.9 27.55 34.9 27.05 34.8L20.05 32.6" stroke="white" stroke-width="2.4" stroke-miterlimit="10"/>
<path d="M50.55 43.8C50.55 44.4 51.05 44.8 51.55 44.8H57.85C58.35 44.8 58.85 44.4 58.85 43.8V18C58.85 17.5 58.35 17 57.85 17H51.55C51.05 17 50.55 17.5 50.55 18V43.8Z" stroke="white" stroke-width="2.4" stroke-miterlimit="10"/>
<path d="M20.15 3.00003C18.05 5.10003 18.35 8.90003 18.35 8.90003C18.35 8.90003 22.15 9.20003 24.25 7.10003C26.35 5.00003 26.05 1.20003 26.05 1.20003C26.05 1.20003 22.25 0.900026 20.15 3.00003Z" stroke="white" stroke-width="2.4" stroke-miterlimit="10"/>
<path d="M16.35 3.00003C18.45 5.10003 18.15 8.90003 18.15 8.90003C18.15 8.90003 14.35 9.20003 12.25 7.10003C10.15 5.00003 10.45 1.20003 10.45 1.20003C10.45 1.20003 14.25 0.900026 16.35 3.00003Z" stroke="white" stroke-width="2.4" stroke-miterlimit="10"/>
<path d="M4.55 26.3L18.45 18L29.25 24.4" stroke="white" stroke-width="2.4" stroke-miterlimit="10"/>
<path d="M18.25 7.90002V18" stroke="white" stroke-width="2.4" stroke-miterlimit="10"/>
</g>
<defs>
<clipPath id="clip0">
<rect width="61.3" height="45.6" fill="white" transform="translate(0.349998 0.200012)"/>
</clipPath>
</defs>
</svg>
