<svg width="52" height="56" viewBox="0 0 52 56" fill="none" xmlns="http://www.w3.org/2000/svg">
<g clip-path="url(#clip0)">
<path d="M38.5371 40.934V15.2555L33.4277 10.1388L33.5223 2.17936L29.7375 5.78004L25.6688 1.98985L21.6948 5.78004L17.5316 2.08461L13.3683 5.78004L8.82655 2.08461V10.2335L3.71709 15.2555V41.0288L1.91931 45.3875H24.0603" stroke="white" stroke-width="2.4" stroke-miterlimit="10"/>
<path d="M34.9415 11.2758V40.555" stroke="white" stroke-width="2.4" stroke-miterlimit="10"/>
<path d="M44.8766 41.313C42.3219 41.313 40.3349 43.7766 40.3349 43.7766C40.3349 43.7766 42.3219 46.2403 44.8766 46.2403C47.4314 46.2403 49.4184 43.7766 49.4184 43.7766C49.4184 43.7766 47.3368 41.313 44.8766 41.313Z" stroke="white" stroke-width="2.4" stroke-miterlimit="10"/>
<path d="M30.3052 42.6396C27.7504 42.6396 25.7634 45.1032 25.7634 45.1032C25.7634 45.1032 27.7504 47.5668 30.3052 47.5668C32.8599 47.5668 34.8469 45.1032 34.8469 45.1032C34.8469 45.1032 32.7653 42.6396 30.3052 42.6396Z" stroke="white" stroke-width="2.4" stroke-miterlimit="10"/>
<path d="M20.654 18.0981C18.8562 19.8985 19.1401 23.0254 19.1401 23.0254C19.1401 23.0254 22.2625 23.3096 24.0603 21.5093C25.8581 19.709 25.5742 16.5821 25.5742 16.5821C25.5742 16.5821 22.3571 16.2978 20.654 18.0981Z" stroke="white" stroke-width="2.4" stroke-miterlimit="10"/>
<path d="M17.4369 18.0981C19.2347 19.8985 18.9509 23.0254 18.9509 23.0254C18.9509 23.0254 15.8284 23.3096 14.0306 21.5093C12.2329 19.709 12.5167 16.5821 12.5167 16.5821C12.5167 16.5821 15.6392 16.2978 17.4369 18.0981Z" stroke="white" stroke-width="2.4" stroke-miterlimit="10"/>
<path d="M36.077 48.3249C33.7115 49.2724 32.7653 52.2098 32.7653 52.2098C32.7653 52.2098 35.5093 53.7259 37.8748 52.8731C40.2403 51.9256 41.1865 48.9882 41.1865 48.9882C41.1865 48.9882 38.4425 47.3773 36.077 48.3249Z" stroke="white" stroke-width="2.4" stroke-miterlimit="10"/>
<path d="M45.539 50.22C43.6466 51.8308 43.5519 54.9577 43.5519 54.9577C43.5519 54.9577 46.6744 55.5262 48.5668 53.9154C50.4592 52.3046 50.5538 49.1777 50.5538 49.1777C50.5538 49.1777 47.4313 48.6091 45.539 50.22Z" stroke="white" stroke-width="2.4" stroke-miterlimit="10"/>
<path d="M9.86737 36.1963L19.1401 30.7005L28.3182 36.1015" stroke="white" stroke-width="2.4" stroke-miterlimit="10"/>
<path d="M19.0455 22.2673V30.7005" stroke="white" stroke-width="2.4" stroke-miterlimit="10"/>
</g>
<defs>
<clipPath id="clip0">
<rect width="51" height="56" fill="white" transform="translate(0.5)"/>
</clipPath>
</defs>
</svg>
