<svg width="40" height="36" viewBox="0 0 40 36" fill="none" xmlns="http://www.w3.org/2000/svg">
<g clip-path="url(#clip0)">
<path d="M19.957 35.2123C15.828 35.2123 14.6237 32.3764 14.6237 32.3764C13.7635 32.1401 12.1291 31.1948 12.1291 31.1948C10.1506 29.9344 12.4732 24.2626 12.4732 24.2626C8.08607 20.9541 8.34414 15.2035 8.34414 15.2035C1.72048 13.7856 0.946289 9.21663 0.946289 9.21663C2.75274 8.58644 8.43016 9.21663 8.43016 9.21663C6.1936 7.71992 7.3979 2.44202 7.3979 2.44202C8.6022 4.72648 13.3334 5.12035 13.3334 5.12035C14.8818 3.30854 25.1183 3.30854 26.6667 5.12035C26.6667 5.12035 31.4839 4.72648 32.6022 2.44202C32.6022 2.44202 33.8065 7.71992 31.4839 9.21663C31.4839 9.21663 37.1613 8.58644 38.9678 9.21663C38.9678 9.21663 38.1936 13.7856 31.5699 15.2035C31.5699 15.2035 31.828 20.9541 27.4409 24.2626C27.4409 24.2626 29.7635 29.9344 27.785 31.1948C27.785 31.1948 26.1506 32.1401 25.2904 32.3764C25.3764 32.3764 24.1721 35.2123 19.957 35.2123Z" stroke="white" stroke-width="2" stroke-miterlimit="10"/>
<path d="M14.6235 32.3763H25.3762" stroke="white" stroke-width="2" stroke-miterlimit="10"/>
<path d="M14.8818 27.5712H17.8926" stroke="white" stroke-width="2" stroke-miterlimit="10"/>
<path d="M21.6775 27.5712H24.7743" stroke="white" stroke-width="2" stroke-miterlimit="10"/>
</g>
<defs>
<clipPath id="clip0">
<rect width="40" height="36" fill="white"/>
</clipPath>
</defs>
</svg>
