<svg width="41" height="40" viewBox="0 0 41 40" fill="none" xmlns="http://www.w3.org/2000/svg">
<g clip-path="url(#clip0)">
<path d="M9.21444 11.1065C10.9052 9.43635 12.6804 8.35075 14.4557 7.84971C15.0474 7.68269 15.7237 7.59919 16.3155 7.51568C16.9918 7.43217 17.6681 7.43217 18.3443 7.51568C19.5278 7.59919 20.7114 7.93321 21.8949 8.35075C23.6701 9.01881 25.4454 10.0209 27.1361 11.19C27.2206 10.856 27.3052 10.4384 27.3052 10.0209C27.3052 7.59919 25.4454 5.59501 23.0784 5.26098C23.0784 2.75576 20.965 0.751587 18.4289 0.751587C16.0619 0.751587 14.1175 2.50524 13.8639 4.84344C13.4412 4.67643 13.0186 4.59292 12.5114 4.59292C10.2289 4.59292 8.45362 6.43008 8.45362 8.60127C8.36908 9.60336 8.70723 10.4384 9.21444 11.1065Z" stroke="white" stroke-width="2" stroke-miterlimit="10"/>
<path fill-rule="evenodd" clip-rule="evenodd" d="M9.21446 11.1064C10.9052 9.4363 12.6804 8.35071 14.4557 7.84966C15.0474 7.68265 15.7237 7.59914 16.3155 7.51563C16.9918 7.43213 17.6681 7.43213 18.3444 7.51563C19.5279 7.59914 20.7114 7.93317 21.8949 8.35071C23.6701 9.01876 25.4454 10.0209 27.1361 11.19C34.4062 16.3674 40.0701 25.0522 40.0701 25.0522C31.1938 39.5824 19.7815 39.1649 19.7815 39.1649L15.132 29.6451C1.77528 32.2338 9.38353 21.0438 9.38353 21.0438V19.0396C6.67838 15.4488 1.26807 16.0334 1.26807 16.0334C2.87425 12.025 8.11549 12.192 8.11549 12.192C8.45363 11.858 8.87631 11.4405 9.21446 11.1064Z" stroke="white" stroke-width="2" stroke-miterlimit="10"/>
<path d="M15.1319 29.6451C13.1876 25.8037 12.0886 23.7161 12.0886 23.7161" stroke="white" stroke-width="2" stroke-miterlimit="10"/>
</g>
<defs>
<clipPath id="clip0">
<rect width="41" height="40" fill="white"/>
</clipPath>
</defs>
</svg>
