<svg width="35" height="38" viewBox="0 0 35 38" fill="none" xmlns="http://www.w3.org/2000/svg">
<g clip-path="url(#clip0)">
<path d="M34.2724 29.3674C34.2724 29.3674 33.5449 33.9661 30.7158 35.741C30.7158 35.741 26.3509 37.8387 14.9537 37.0319C14.9537 37.0319 5.09228 35.9024 2.02069 33.8854C2.02069 33.8854 0.484892 30.5775 0.889049 26.3822C0.889049 26.3822 4.68813 25.8175 4.76896 30.1741" stroke="white" stroke-width="2" stroke-miterlimit="10"/>
<path d="M3.15234 26.6243C3.15234 26.6243 10.9122 22.0255 12.2863 19.9279C12.2863 19.9279 13.7413 15.8939 15.6812 14.6837" stroke="white" stroke-width="2" stroke-miterlimit="10"/>
<path d="M18.1872 16.2166C18.1872 16.2166 12.7715 11.8599 11.6398 10.8111C10.5082 9.76226 9.21489 8.06799 9.37656 1.53296C9.37656 1.53296 11.2357 2.90451 12.6098 3.22723C12.6098 3.22723 17.1364 3.79198 18.5105 4.43742C19.8846 5.08285 23.6837 9.92362 23.6837 9.92362" stroke="white" stroke-width="2" stroke-miterlimit="10"/>
<path d="M24.7344 13.4735C24.7344 13.4735 30.3117 15.7325 31.4434 19.2017C32.4134 22.5903 30.2309 28.2378 30.2309 28.2378" stroke="white" stroke-width="2" stroke-miterlimit="10"/>
<path d="M22.7944 8.95547C22.7944 8.95547 29.8268 7.74527 33.545 8.95547" stroke="white" stroke-width="2" stroke-miterlimit="10"/>
</g>
<defs>
<clipPath id="clip0">
<rect width="35" height="38" fill="white"/>
</clipPath>
</defs>
</svg>
