<svg width="8" height="11" viewBox="0 0 8 11" fill="none" xmlns="http://www.w3.org/2000/svg">
<g clip-path="url(#clip0)">
<path d="M7.4 8.6835V8.5835C7.4 8.2835 7.1 7.8835 6.8 7.6835L5.8 7.0835C5.5 6.8835 5.1 6.9835 4.8 7.0835L4.3 7.3835C2.9 6.6835 2 5.2835 1.9 3.6835L2.4 3.3835C2.7 3.1835 2.9 2.7835 2.9 2.4835V1.2835C2.9 0.983496 2.7 0.583496 2.4 0.383496L2.2 0.283496C2 0.183496 1.5 0.183496 1.2 0.283496L0.499997 0.783496C0.399997 0.883496 0.199997 1.1835 0.199997 1.1835C-0.300003 3.0835 -3.09944e-06 5.1835 1.1 6.7835C2.1 8.4835 3.8 9.6835 5.7 10.0835C5.7 10.0835 6 10.0835 6.2 9.9835L7 9.5835C7.2 9.3835 7.4 8.9835 7.4 8.6835Z" fill="#78B948"/>
</g>
<defs>
<clipPath id="clip0">
<rect width="7.4" height="9.9" fill="white" transform="translate(0 0.183594)"/>
</clipPath>
</defs>
</svg>
