<svg width="46" height="45" viewBox="0 0 46 45" fill="none" xmlns="http://www.w3.org/2000/svg">
<g clip-path="url(#clip0)">
<path d="M22.8847 0C18.4246 0.00436176 14.0662 1.33282 10.3621 3.81698C6.65793 6.30114 3.7748 9.82913 2.07818 13.9537C0.381564 18.0783 -0.0521418 22.6137 0.832044 26.9851C1.71623 31.3564 3.87849 35.3668 7.04473 38.5079C9.10503 40.5702 11.5525 42.2052 14.2465 43.3189C16.9406 44.4326 19.8281 45.0031 22.7433 44.9977H22.8915C28.8207 44.959 33.6324 42.5281 35.5548 41.0915C37.9356 39.3744 39.0052 37.5844 38.7361 35.7715C38.4419 33.7967 36.6175 32.522 35.3154 31.8516C35.5878 31.2209 35.6893 30.5296 35.6096 29.8472L35.5594 29.471C35.4318 28.7798 35.1501 28.1263 34.7351 27.559C34.3202 26.9916 33.7827 26.5251 33.1627 26.1941L30.2939 24.81C29.6383 24.5231 28.9224 24.4011 28.2089 24.4548C27.4953 24.5085 26.8057 24.7361 26.2005 25.1178L25.5916 25.5397C24.241 24.7599 23.0813 23.6889 22.1969 22.4045C21.3124 21.1201 20.7255 19.6547 20.4788 18.1149L21.0991 17.6862C21.6691 17.2574 22.1257 16.6959 22.4293 16.0506C22.733 15.4052 22.8744 14.6954 22.8414 13.983L22.5746 10.8088C22.487 10.1084 22.2421 9.43685 21.8583 8.8445C21.4744 8.25215 20.9615 7.75431 20.358 7.38826L20.041 7.21496C19.3989 6.88698 18.682 6.73293 17.9618 6.76813C17.2416 6.80334 16.5432 7.02658 15.9362 7.41563L13.9841 8.7519C13.4049 9.15324 13.0081 9.94451 12.8211 10.3801L12.7641 10.5123L12.7367 10.6537C12.197 13.397 12.2101 16.2205 12.7752 18.9587C13.3403 21.6969 14.4461 24.2949 16.0278 26.6004C17.6095 28.906 19.6353 30.8728 21.9867 32.3857C24.338 33.8986 26.9676 34.9272 29.7215 35.4112C29.8212 35.4243 29.9219 35.4296 30.0225 35.4272C30.5082 35.4272 31.4158 35.3405 32.0156 34.9346L33.4044 33.9769C34.4785 34.4079 35.9129 35.3132 36.0292 36.1729C36.1295 36.8569 35.3701 37.8466 33.9448 38.8728L33.9243 38.8887C32.3896 40.0289 28.1046 42.2226 22.8733 42.2568H22.7433C20.1854 42.2604 17.6521 41.7586 15.2887 40.7803C12.9254 39.8019 10.7786 38.3663 8.9717 36.5559C6.52095 34.1284 4.74818 31.1018 3.82959 27.7769C2.91099 24.452 2.87855 20.9446 3.73549 17.6033C4.59243 14.262 6.30891 11.2031 8.71434 8.73059C11.1198 6.25811 14.1304 4.45815 17.447 3.50958C20.7636 2.56101 24.2708 2.49687 27.6199 3.32352C30.969 4.15018 34.0434 5.83885 36.5377 8.22171C39.0319 10.6046 40.8591 13.5986 41.8377 16.9064C42.8162 20.2141 42.9121 23.7204 42.1157 27.0766C42.0742 27.2515 42.0676 27.4328 42.0962 27.6103C42.1248 27.7877 42.1881 27.9578 42.2824 28.1108C42.3768 28.2638 42.5003 28.3967 42.646 28.5019C42.7917 28.6072 42.9567 28.6827 43.1316 28.7242C43.3065 28.7656 43.4879 28.7723 43.6653 28.7436C43.8428 28.715 44.0128 28.6518 44.1658 28.5574C44.3188 28.4631 44.4518 28.3396 44.557 28.1939C44.6622 28.0482 44.7378 27.8832 44.7792 27.7083C45.5622 24.4028 45.5872 20.9631 44.8522 17.6466C44.1173 14.3302 42.6416 11.223 40.5355 8.55768C38.4294 5.89238 35.7476 3.73807 32.6909 2.25607C29.6342 0.774073 26.2818 0.00279761 22.8847 0V0ZM30.5424 32.6338C30.3924 32.6677 30.2399 32.6898 30.0863 32.6999C27.7164 32.2678 25.4552 31.3715 23.4328 30.0627C21.4103 28.7539 19.6665 27.0583 18.3016 25.0733C16.9366 23.0884 15.9774 20.8533 15.4791 18.4965C14.9808 16.1396 14.9532 13.7076 15.398 11.3401C15.4641 11.2074 15.5403 11.0801 15.626 10.9593L17.4869 9.67315C17.6745 9.57362 17.882 9.51708 18.0942 9.50761C18.3064 9.49815 18.518 9.536 18.7138 9.61843L19.0307 9.79173C19.4518 10.0851 19.7422 10.5308 19.8403 11.0345L20.1071 14.2087C20.1014 14.4409 20.0481 14.6693 19.9504 14.88C19.8527 15.0906 19.7128 15.279 19.5393 15.4333L17.5895 16.7809L17.6602 17.5585C17.8528 19.8509 18.6401 22.0535 19.9442 23.9486C21.2484 25.8438 23.0243 27.366 25.0967 28.365L25.8128 28.7093L27.7489 27.3639C27.955 27.2565 28.181 27.1926 28.4128 27.1761C28.6446 27.1596 28.8774 27.191 29.0966 27.2682L31.97 28.6546C32.4012 28.922 32.7131 29.3449 32.8411 29.8358L32.8913 30.2166C32.8952 30.4295 32.8526 30.6406 32.7663 30.8352C32.68 31.0298 32.5522 31.2031 32.3919 31.3431L30.5424 32.6338Z" fill="#78B948"/>
</g>
<defs>
<clipPath id="clip0">
<rect width="45" height="45" fill="white" transform="translate(0.382812)"/>
</clipPath>
</defs>
</svg>
